<svg width="13" height="20" viewBox="0 0 13 20" fill="none" xmlns="http://www.w3.org/2000/svg">
<path fill-rule="evenodd" clip-rule="evenodd" d="M10.5905 0.0371805C9.84228 0.0470855 9.15113 0.0908683 9.05471 0.134302C8.95828 0.177735 8.09805 0.177284 7.14309 0.133056C6.18802 0.0890468 5.20488 0.139464 4.95822 0.245475C4.71157 0.351487 4.34501 0.350092 4.14368 0.242327C3.94214 0.134449 3.45711 0.124231 3.06587 0.219634C2.67463 0.315038 2.13014 0.272989 1.85597 0.126234C1.58179 -0.0205219 1.30764 -0.0425665 1.24667 0.0772056C1.18569 0.196978 0.99819 0.221314 0.829776 0.131169C0.348747 -0.126307 -0.0072734 0.229576 0.000112846 0.960382C0.00780515 1.72987 0.284768 1.93272 1.43672 2.01255C1.88902 2.04405 2.65813 2.12209 3.14567 2.1863C3.63331 2.25029 4.37218 2.26033 4.78775 2.20843C5.50228 2.11925 5.55009 2.14373 5.66639 2.65794C5.73416 2.95692 5.76147 3.40493 5.72746 3.6533C5.69323 3.90156 5.75622 4.15364 5.8673 4.21309C5.97858 4.27265 5.98484 4.64152 5.88131 5.0328C5.77778 5.42408 5.77093 5.93444 5.86588 6.16676C5.96094 6.39942 5.96188 6.74049 5.86798 6.92494C5.77419 7.10917 5.7202 7.78218 5.74792 8.41996C5.77585 9.05785 5.74765 9.86438 5.68527 10.212C5.62309 10.5598 5.64287 11.2678 5.72942 11.7858C5.81597 12.3037 5.80197 12.894 5.69853 13.0971C5.59499 13.3005 5.59282 13.7741 5.69379 14.1496C5.79466 14.5253 5.79199 14.8846 5.68751 14.9481C5.58324 15.0118 5.51132 15.5156 5.52786 16.0675C5.54428 16.6197 5.49983 17.0404 5.42911 17.0026C5.3586 16.9648 5.34107 17.1267 5.39041 17.3626C5.49705 17.8714 5.08512 17.9357 2.43774 17.8233C0.439034 17.7383 -0.228828 18.1271 0.0959245 19.1868C0.291939 19.8274 0.304592 19.8328 1.55474 19.7967C2.24837 19.7767 2.9647 19.8401 3.14649 19.9374C3.3285 20.0348 3.52726 20.0165 3.58823 19.8967C3.64921 19.777 3.88068 19.7762 4.10261 19.8949C4.32433 20.0136 5.17747 20.0338 5.99848 19.9399C6.81949 19.8459 7.57706 19.8149 7.68198 19.8711C7.7871 19.9274 7.92301 19.8754 7.98398 19.7556C8.04495 19.6359 8.24712 19.6194 8.43295 19.7188C8.61899 19.8184 9.114 19.834 9.53285 19.7534C9.95191 19.6728 10.4541 19.6923 10.6491 19.7966C10.844 19.901 11.477 19.8255 12.0558 19.6287C13.0873 19.2783 13.1039 19.2595 12.8925 18.6731C12.7054 18.1542 12.5378 18.0432 11.6317 17.8372C11.0571 17.7067 10.2605 17.6625 9.86179 17.7392C9.46305 17.8159 9.03779 17.8257 8.91674 17.7609C8.79568 17.6961 8.42654 17.7153 8.0964 17.8032C7.52547 17.9554 7.49227 17.9351 7.41079 17.3833C7.36361 17.064 7.40078 16.6491 7.49324 16.4611C7.58581 16.2729 7.59923 15.7741 7.52314 15.3524C7.44706 14.9306 7.47574 14.3848 7.58643 14.1393C7.69734 13.8938 7.75458 13.3009 7.71365 12.8218C7.67273 12.3427 7.65851 11.7739 7.6818 11.5578C7.70509 11.3416 7.7114 10.9709 7.69561 10.7339C7.63325 9.78934 7.6415 8.06434 7.70901 7.96995C7.74841 7.91484 7.73244 7.6569 7.67354 7.39676C7.61464 7.13662 7.6266 6.53504 7.70027 6.05961C7.77362 5.58428 7.78918 4.54931 7.73489 3.75987C7.62479 2.16383 7.90144 1.69949 8.70592 2.1301C9.00155 2.28834 9.28834 2.32962 9.34333 2.2216C9.3982 2.11381 9.95397 2.07211 10.5784 2.12921C11.9712 2.25654 12.5367 1.96318 12.6412 1.05891C12.7372 0.22579 12.3123 0.014152 10.5905 0.0371805Z" fill="black"/>
</svg>
