<svg width="224" height="340" viewBox="0 0 224 340" fill="none" xmlns="http://www.w3.org/2000/svg">
<path d="M161.555 47.0988L156.456 38.3213C152.393 31.3279 150.702 23.8705 151.011 15.6996C151.071 14.0583 149.82 11.1919 152.06 10.181C154.3 9.17 157.755 15.9375 159.971 18.4946C163.89 22.9904 167.393 27.3435 169.764 32.7908C170.193 23.1094 170.062 13.0117 174.649 4.76936C181.404 8.32556 181.082 18.4114 180.832 26.6774C180.76 28.7945 180.57 30.864 181.678 33.1476L183.203 27.2959C185.705 17.6858 189.41 7.94496 195.915 0C200.585 1.71269 199.477 12.631 197.583 18.8039L193.89 30.8997C197.535 27.8074 201.836 24.1203 204.422 24.9529C205.541 25.3216 207.245 27.0699 206.661 28.4615L204.743 33.0525C203.337 36.4065 199.68 38.1667 198.429 42.2344C206.197 36.7871 214.227 32.8384 223.424 32.8502C224.199 35.0863 224.33 37.8575 222.948 39.3085C218.849 43.6021 214.251 46.2544 209.02 48.5261C205.113 50.215 202.063 53.5452 197.785 54.3539C204.338 55.5433 211.153 60.6695 209.282 63.5002C207.138 66.7114 202.92 67.1396 199.179 67.1039L206.447 73.3957C208.591 75.2511 209.831 77.5823 212.297 79.2474C213.071 79.7707 213.595 80.8887 213.548 81.6261C213.262 85.6224 199.87 84.766 191.888 77.618C189.994 75.9291 189.47 73.2411 186.741 72.2182C187.289 75.7506 186.408 79.1046 186.193 82.5657C185.907 87.2637 185.8 91.5811 185.609 96.1482L184.895 113.87C188.505 114.096 192.186 113.989 195.629 113.43C199.537 112.799 203.004 113.156 206.947 113.275C208.723 113.335 212.166 113.549 212.523 115.915L211.582 124.717C211.356 126.822 211.224 128.689 211.046 130.676L210.355 138.383L209.747 151.382C209.545 155.771 209.211 159.898 208.675 164.132L207.495 173.612C212.249 172.898 216.514 172.624 220.637 174.777C219.957 176.454 220.124 177.715 220.553 179.392L220.029 183.257C219.838 184.649 220.684 187.872 218.945 188.633C215.18 189.287 211.284 188.122 207.412 187.931C208.27 193.962 207.9 198.993 207.889 204.404L207.853 224.278L208.27 236.434L209.354 246.21C209.449 247.114 208.854 247.875 209.044 248.387C209.354 249.255 210.545 249.553 211.451 249.386C213.798 248.934 215.787 249.909 218.039 249.707C219.147 249.612 219.969 248.28 221.185 249.101C222.9 250.254 223.377 255.487 222.781 259.222C222.471 261.196 223.627 264.527 222.817 266.085C221.387 268.844 219.374 266.334 218.158 266.192C215.001 265.811 211.999 266.679 208.937 265.3C208.532 268.856 210.343 272.21 209.306 275.076C207.126 281.13 208.425 285.852 207.865 291.097C207.233 296.996 207.889 302.467 208.091 308.414C208.222 312.173 205.673 322.865 206.757 323.923C208.925 326.041 214.239 322.579 219.457 324.399C222.686 325.529 221.685 328.336 220.994 331.048C220.517 332.939 222.412 337.304 219.54 338.541L211.201 339.468C202.051 340.491 195.105 338.814 189.255 338.683L180.546 338.493C177.532 338.434 174.958 338.172 171.956 338.053L160.662 337.577C159.113 337.518 154.18 338.041 150.332 338.065L129.542 338.172C124.681 338.196 119.546 336.781 114.852 337.97C112.458 338.576 111.028 338.838 108.455 338.017C104.332 336.685 99.543 338.196 95.2301 338.16L69.9249 337.899C67.8876 337.875 66.1243 337.863 64.1347 337.875L53.567 337.922L46.7403 338.053C41.7126 338.148 37.0423 338.874 31.9789 338.862C28.7621 338.862 25.7002 339.92 22.2928 339.659C19.4692 339.445 16.4908 340.396 13.6195 339.801C10.3551 339.124 7.06681 338.826 3.40922 338.802C1.26471 338.041 1.99148 334.39 2.15827 332.427C2.33698 330.263 0.514117 327.551 1.97953 325.446C3.15902 323.757 6.626 323.805 8.69903 323.983L16.467 324.673C17.0507 318.595 15.2994 312.993 14.7275 307.094L15.5853 299.078L14.9539 280.25C14.8943 278.632 14.239 277.431 14.1794 275.861L13.7505 265.728L4.87462 266.323C3.36154 266.43 1.51492 268.261 0.442659 266.239C-0.629598 264.217 0.60942 261.458 0.406882 259.71C0.0852051 256.938 -0.2603 255.107 0.406882 252.193C0.692817 250.968 0.27582 250.159 1.21702 249.374C2.70627 248.137 3.43306 249.636 4.45766 249.695C7.66251 249.85 10.4146 248.851 14.0722 249.552C13.3217 245.069 14.3581 241.596 14.6917 237.587C14.8942 235.114 14.2866 232.556 15.204 229.904C15.8831 227.954 15.2875 226.027 15.2756 224.112L15.204 190.393L15.8116 187.741C11.8324 188.217 7.85316 189.632 4.02877 188.562C2.3489 188.098 2.88499 185.16 2.87308 183.864C2.82543 180.795 1.90809 177.18 3.36159 174.92C5.8397 173.171 9.31856 172.636 11.9873 173.279C13.7148 173.695 15.1326 173.171 16.6575 173.124L22.3048 172.922C30.1203 172.648 40.8786 173.909 46.1565 173.112C47.9675 172.838 50.2668 173.992 52.1731 173.457C55.5924 172.494 58.6662 172.636 62.0736 173.409C64.2657 173.909 66.6128 173.219 68.7692 173.29L86.3899 173.861C88.3676 173.921 90.0833 173.6 92.0491 173.719L107.18 174.706L116.163 174.622L131.21 173.826L143.089 173.635L154.002 173.279L159.911 173.433L156.718 156.616C155.872 152.179 155.789 148.123 155.419 143.58L154.764 135.802L154.168 128.654L152.953 117.735C152.858 116.903 153.358 115.939 153.68 115.333C153.966 114.774 155.622 115.749 156.23 115.571C159.601 114.595 162.747 115.345 165.975 115.238C168.632 115.154 171.325 114.012 174.458 114.405L175.352 91.4384L175.113 76.8924C175.113 76.3453 175.685 75.7388 175.471 75.5009C174.089 73.9785 170.264 79.6161 163.068 81.6975L150.094 85.4559C148.748 82.3754 149.927 80.1156 152.608 78.3197L154.955 75.4295C147.878 76.8686 134.642 78.617 133.224 75.3344C131.806 72.0517 139.109 70.3985 142.374 66.0097C134.022 66.3309 123.359 60.8003 125.289 56.9943C127.684 52.2845 151.988 45.8857 160.84 48.0622L161.484 47.1345L161.555 47.0988ZM182.381 45.1364C186.014 38.7614 189.327 32.5767 191.4 25.5119C193.175 19.4937 196.261 12.9522 195.272 6.56528L192.031 13.4279C189.16 19.5056 187.301 25.7259 184.93 32.0534L181.94 40.034C181.404 41.4494 181.452 43.1263 182.369 45.1364H182.381ZM178.175 55.246C179.247 49.6797 178.199 45.2315 177.996 41.0331L177.591 32.6243C177.413 28.8778 176.865 25.4643 176.996 21.6107C177.103 18.6016 177.734 15.4855 175.423 12.643L173.636 30.2099L173.302 40.3432C173.255 41.7348 174.434 46.635 172.957 50.1912C172.564 51.1308 175.185 52.3677 176.507 51.9277C177.115 53.4025 176.96 54.6513 178.175 55.2579V55.246ZM168.978 39.3561L162.484 27.6884C161.567 26.0471 160.423 24.6912 159.16 23.1807L155.098 18.3281C154.562 23.7635 155.646 28.7469 158.172 33.3022L161.627 39.5226C163.318 42.5793 164.629 45.6002 167.917 47.3486C167.572 47.9552 167.429 48.7639 167.703 48.8948C167.893 48.978 168.513 48.8948 169.085 49.5014C168.477 45.065 169.966 41.1163 168.978 39.3561ZM192.138 43.1501L202.039 29.9958C194.259 32.874 190.399 41.0093 185.407 46.861C183.489 49.1089 181.737 51.0832 181.868 54.3064C186.062 51.559 189.434 46.7301 192.126 43.1501H192.138ZM209.223 44.4822C219.779 39.6772 221.613 33.7185 218.516 36.3946C217.003 37.7029 214.858 37.5839 213.155 38.2618C205.565 41.2828 199.585 46.5636 193.389 51.3449C198.667 51.0951 204.434 46.6588 209.211 44.4822H209.223ZM196.88 43.0312V43.4594V43.8995V44.3276L196.904 43.8995V43.0431L196.88 43.0312ZM162.532 47.6103L161.496 47.9195C161.722 48.6331 162.89 48.4071 162.532 47.6103ZM156.313 60.1343C160.102 59.7299 165.189 57.2084 167.786 56.7089C168.584 56.5543 169.835 55.3887 171.003 54.4491C165.928 52.1655 160.364 50.3934 154.991 51.1784L145.078 52.6294C142.612 52.9862 140.36 53.9734 137.954 54.5086C134.975 55.1865 132.711 55.8882 129.828 58.2432C132.545 60.0867 136.012 62.2632 140.015 61.847L156.313 60.1343ZM197.476 63.7024L205.756 62.3108C199.751 56.8397 191.4 56.4234 184.835 61.0501C186.146 61.3712 187.003 60.9193 188.076 60.7646C190.852 62.1681 194.021 64.2852 197.488 63.7024H197.476ZM155.574 70.1725C157.016 69.0545 159.232 69.0188 160.638 68.103C164.343 65.6648 167.893 63.738 172.576 62.0254C169.514 60.0153 166.464 61.3355 163.557 62.061L154.633 64.2851C149.034 65.6886 145.126 68.9237 140.706 72.5512C143.72 74.0617 152.203 72.801 155.574 70.1725ZM181.404 105.723C181.666 100.192 181.845 95.0302 182.131 89.7614L182.512 82.4943L182.738 75.4652C182.834 72.5512 182.011 69.673 182.571 66.8185C182.667 66.3428 183.489 65.7481 183.453 65.4151C183.417 65.082 182.834 64.4516 182.5 64.4635C181.678 64.5111 179.676 65.3199 179.652 65.3794C179.664 65.3318 182.607 67.1753 179.271 71.8495L178.759 103.843L178.33 114.31C179.343 114.453 179.891 114.464 180.987 114.31L181.392 105.723H181.404ZM207.078 79.6398C204.267 77.8677 203.254 74.6921 200.978 73.2173L188.743 65.2604C186.729 67.4251 189.47 68.222 190.125 69.3638C193.008 74.3472 196.57 77.6774 202.194 79.0214C203.659 79.3782 205.005 80.9006 207.078 79.6398ZM176.317 68.6025C175.661 67.77 174.101 66.1881 172.54 66.4736C166.214 67.6392 161.46 72.2301 158.183 77.3444C157.874 77.832 156.313 78.3672 157.052 79.4852C164.534 78.6051 170.586 73.9666 176.317 68.6145V68.6025ZM163.187 171.435L190.78 173.076L203.671 172.743L205.256 160.291C205.851 155.616 205.744 151.144 206.078 146.458L206.661 138.061L208.556 119.055C208.663 118.021 208.556 117.521 208.02 116.926C207.686 116.546 184.716 117.616 176.948 118.068L167 118.639C163.533 118.841 160.554 118.829 156.754 118.96C158.124 123.527 157.79 127.976 158.231 132.555L160.578 156.984C160.793 159.256 162.067 160.885 162.079 163.383C162.079 166.047 163.342 168.973 163.187 171.423V171.435ZM197.976 183.995L208.234 184.459C210.998 184.577 213.286 184.399 216.431 185.362C216.931 182.71 217.015 179.987 215.966 177.263C212.666 176.383 209.378 176.799 206.042 176.799H182.428C180.367 176.799 178.139 176.894 176.209 176.906L169.764 176.954C164.593 176.989 159.661 176.954 154.514 177.001L141.552 177.108L112.732 178.476L93.7766 177.525L71.5213 177.061C68.5786 177.001 65.8146 176.787 62.5978 176.823L53.1739 176.906C50.66 176.93 48.4797 177.073 46.0612 177.001L31.3713 176.573L7.174 177.013C6.05409 179.808 6.05409 182.591 7.174 185.41C10.9269 183.888 14.3105 184.768 17.8728 184.459C25.2594 183.816 32.3363 184.233 39.58 183.947L51.9348 183.459C54.0197 183.376 56.7004 184.054 58.6781 183.721C62.8123 183.043 66.0409 183.721 69.8415 183.983C72.6651 184.173 75.3457 183.626 78.4076 184.233C81.4695 184.839 85.2343 184.185 88.4153 184.137L97.2674 184.019L115.353 183.935L134.916 184.244C138.061 184.292 141.409 184.863 144.482 184.268C147.556 183.674 150.106 183.935 153.072 184.019C156.039 184.102 159.149 183.4 162.437 183.436L175.399 183.578L197.988 183.995H197.976ZM93.0022 247.471C91.1198 248.708 89.8331 249.838 87.903 250.397L94.6464 250.778C98.0418 250.968 101.294 250.48 104.928 250.67L105.071 235.209C105.143 228.013 103.939 221.555 104.737 214.859C105.19 211.041 104.285 207.39 104.523 204.392C104.666 202.608 104.857 200.67 104.773 198.719L104.511 191.809C104.463 190.429 103.927 189.133 105.083 187.254L86.247 187.848C82.3273 187.967 77.7524 188.288 76.1678 188.122C64.099 186.837 52.2446 187.42 40.1281 187.515L34.6595 187.551C33.0273 187.563 28.774 186.397 28.5715 188.586L27.7375 197.934L36.8398 197.66L53.5432 198.529C55.9498 198.648 62.5024 197.482 63.6938 200.015C64.5397 201.823 62.419 205.058 63.6104 205.76C65.3261 206.771 75.9772 196.221 79.0629 199.219C81.5052 201.585 82.2201 205.213 83.8523 208.032C85.6037 211.053 87.1167 214.264 88.868 217.285L93.1094 224.588C94.0387 227.847 95.6947 229.999 97.4223 232.782L101.139 238.753C103.963 243.296 96.7909 244.926 93.0022 247.435V247.471ZM195.903 187.051H117.926V251.277H195.903V187.051ZM18.9689 248.434C19.6599 249.481 22.5668 250.456 23.5557 249.291L23.8536 231.296C23.9846 222.982 24.0204 214.99 24.2467 206.521L24.5804 194.307L24.3897 187.967L20.1841 187.539C16.9792 194.735 20.5415 201.074 18.3136 207.282C19.5884 211.719 18.8139 216.096 18.8616 220.544L18.945 226.729C19.0046 231.177 18.6948 235.625 18.1825 240.097C17.8489 243.011 17.0269 245.497 18.9689 248.434ZM114.447 246.317C113.816 240.894 113.995 236.029 114.281 230.939L114.531 226.598L114.793 204.63L114.769 187.765L108.228 187.741L108.288 196.828L108.407 216.655C108.431 220.318 108.586 223.624 108.598 227.43L108.633 245.984C108.633 247.507 107.752 249.41 109.372 250.468C110.313 251.075 112.517 251.241 113.518 250.48C114.566 249.683 114.626 247.864 114.447 246.317ZM204.553 238.384L204.171 227.05V213.324V199.718C204.171 195.627 204.839 191.571 203.063 187.694L198.441 187.943L198.894 202.24L198.977 210.541L198.751 221.174L198.846 237.813C198.87 241.845 200.252 245.651 199.751 250.04L204.124 249.053C206.471 243.142 204.648 240.87 204.565 238.384H204.553ZM41.653 248.875L41.9747 235.328L41.9271 223.743C41.8913 216.334 41.6292 208.936 42.0223 201.419C39.4847 200.979 37.5665 201.609 35.3863 201.597C33.206 201.585 31.2998 201.157 29.0719 202.347L27.4635 218.07C27.3563 225.397 27.9877 232.533 27.2967 239.954C27.0346 242.749 28.0711 245.663 27.5469 248.91C29.3221 249.945 31.3832 249.362 33.4324 249.434C36.2679 249.541 38.8294 249.957 41.653 248.851V248.875ZM58.6423 234.674C58.4755 230.297 58.4517 226.039 58.6185 221.662L58.976 211.766C59.0951 208.508 59.2619 205.272 59.4168 202.109C57.1055 201.562 55.1873 202.24 53.0666 202.192C50.7553 202.144 48.5274 201.419 46.097 202.37L45.6204 214.573L45.8229 240.87C45.8467 244.105 45.8229 246.698 44.9294 250.123C47.0143 249.231 48.2295 249.552 49.9332 249.636C53.007 249.802 56.0927 249.434 59.4525 250.088L59.0117 244.391L58.6423 234.662V234.674ZM84.3288 248.208L94.0268 242.892C95.1586 242.274 97.5653 241.417 97.5176 239.8C94.2293 235.102 91.7989 230.011 88.9395 224.956L82.3988 213.408L77.1685 202.335L64.9448 209.566L67.554 215.905C71.9621 223.125 76.2869 232.568 80.4926 240.739L84.3288 248.197V248.208ZM64.1466 250.563C66.8153 249.291 69.341 250.504 71.7953 250.492H81.4457L72.7604 234.067C71.021 230.772 69.5794 227.549 67.8161 224.195L63.0029 214.99C61.1086 217.737 62.9194 222.483 62.288 228.096C61.9782 230.868 62.2403 233.08 62.419 235.827C62.6097 238.92 62.1689 241.727 62.9076 244.855C63.3126 246.579 62.4191 248.922 64.1466 250.563ZM175.78 262.172L188.04 262.005C190.804 261.969 193.139 261.898 195.963 261.946L201.824 262.041L214.143 262.243C215.847 262.267 217.718 261.375 219.219 263.135L219.159 255.678C219.159 255.047 219.493 253.573 218.992 253.251C219.278 253.43 209.151 253.097 203.409 253.394C191.447 254.025 179.807 253.525 167.87 253.787L153.859 254.096L128.363 254.5L118.701 254.429C116.199 254.405 113.947 254.857 111.421 254.893C108.895 254.928 106.656 254.429 104.106 254.429H93.9315C84.2931 254.429 75.0717 254.132 65.2903 254.048L27.6422 253.703L17.0864 253.358L4.15981 253.287L4.05255 262.433C9.68786 261.803 16.0142 262.35 21.0895 262.16L26.9632 261.934C30.0846 261.815 32.8963 262.184 36.0058 262.184L47.0381 262.16L58.7377 262.826C62.9671 263.064 66.8749 262.98 71.0448 262.802L76.1797 262.576L86.8308 262.16L107.466 262.778C108.038 261.767 109.074 261.28 109.813 261.196C110.349 261.137 111.076 261.767 111.683 262.1C113.053 259.852 114.948 262.695 116.08 262.766C119.344 262.588 123.276 262.528 126.564 262.433L137.012 262.136L148.783 262.659C151.428 262.778 153.978 263.325 156.706 262.647C158.636 262.172 160.793 263.004 162.735 262.897L175.757 262.207L175.78 262.172ZM132.485 323.198L142.91 323.674C144.042 322.365 145.614 323.067 146.901 322.889C152.524 322.139 159.804 323.162 163.89 323.055L171.694 322.853C174.899 323.424 177.508 323.091 180.51 323.067C185.145 323.02 189.672 324.637 194.593 323.745C194.068 323.008 193.782 321.818 193.89 320.665L195.307 305.084C195.963 297.841 196.046 290.954 195.391 283.782L195.748 273.399C195.832 271.08 195.26 269.165 195.987 266.798C196.165 266.227 195.677 265.49 195.307 265.193C194.938 264.895 194.473 265.228 193.83 265.407C188.648 266.596 183.596 265.621 178.378 265.823C175.435 265.93 172.742 265.871 169.752 266.025L161.913 266.441C156.265 265.728 150.797 266.893 145.388 266.346L141.325 265.942C137.346 265.538 131.568 265.99 127.565 266.037L119.558 266.12C118.415 270.533 118.808 275.041 118.558 279.834L118.022 290.193C117.914 292.334 118.319 294.296 117.545 296.378C118.069 305.024 118.319 314.397 117.855 323.4C122.835 322.52 127.338 322.96 132.485 323.198ZM24.8782 324.138C26.1887 317.989 24.2705 311.376 24.2348 309.508L23.8416 287.672C23.8059 285.65 24.4493 284.318 24.0204 282.129C23.7225 280.619 23.6272 278.573 23.5915 276.896L23.4247 269.581C23.3889 268.142 23.9727 266.834 22.686 266.013C21.721 265.407 19.219 265.133 18.3612 266.263C16.7528 269.462 18.2302 273.566 18.4089 277.11L18.9212 287.553L18.9927 303.205C19.0165 307.463 18.5042 311.423 19.7433 315.586C20.3032 317.489 20.0292 319.273 20.1722 321.188C20.2437 322.199 21.2802 323.198 20.3271 324.578C22.1856 324.578 23.925 324.482 24.8901 324.138H24.8782ZM105.166 307.819L105.119 295.26L104.32 277.265C104.154 273.364 104.511 269.641 103.236 265.692C100.961 266.168 98.3873 266.584 96.1475 265.989C93.2524 265.216 90.6909 265.668 87.8911 265.811L76.8588 266.394L65.6716 266.275L47.1335 266.025C42.6896 265.966 37.5904 266.18 35.3506 266.061L26.701 265.585C28.2736 272.662 27.3086 281.32 27.4158 288.683L27.6184 302.467C27.6899 306.844 28.7264 311.019 28.8098 315.503L28.9528 323.828C33.6349 324.578 38.3648 322.841 42.7492 323.079C47.6815 323.353 55.64 323.067 61.5613 322.912L76.3465 322.52C77.6451 322.484 78.8723 323.079 79.7301 323.614C84.3289 322.817 89.0587 323.031 93.7528 323.115L105.679 323.329C104.273 319.011 105.166 313.231 105.143 307.819H105.166ZM202.944 324.59C201.717 322.77 203.266 321.557 203.266 320.677C203.266 318.571 202.766 316.716 203.492 314.694C204.946 310.603 203.885 306.654 203.921 302.586L204.064 290.288C204.088 288.504 204.505 286.946 204.457 285.352C204.279 280.191 204.553 275.29 205.41 270.176L204.731 265.823C203.361 265.704 200.716 265.169 200.18 266.441C199.132 269.236 199.847 272.626 199.465 275.54C198.655 281.808 199.644 287.695 199.382 293.844L198.703 309.865C198.619 311.947 197.94 313.885 198.214 315.955C198.405 317.43 197.571 318.619 197.523 320.034C197.476 321.283 198.405 322.71 198.071 324.197L202.944 324.59ZM114.173 323.21L114.388 315.265L114.066 299.791L114.805 270.676C114.841 269.355 112.994 267.738 114.817 266.287C112.458 266.085 111.016 266.013 109.158 266.465C107.513 273.994 108.574 281.249 108.693 288.861L109.015 309.901L108.717 316.894C108.633 318.821 108.026 321.652 109.61 323.043C110.73 323.079 112.577 322.96 114.161 323.198L114.173 323.21ZM192.234 335.329L207.603 336.114L217.277 335.032L217.312 328.003C214.656 326.933 212.237 327.92 209.533 327.872L189.076 327.515L182.202 326.873C178.461 327.301 175.054 326.778 171.253 326.659L155.36 326.207L142.064 326.778C139.05 326.909 136.56 327.444 133.367 326.802C130.698 326.267 125.754 327.028 122.537 326.98L114.233 326.849C112.196 326.814 110.659 326.849 108.645 326.849L100.401 326.909C96.3381 326.933 90.4526 326.504 89.571 326.707C86.2828 327.468 83.8642 326.897 80.8023 326.766L67.4944 326.195L42.5943 326.909L27.404 327.61L14.5965 327.86C11.3439 327.92 8.34161 327.159 5.57757 328.074L5.69668 334.759L16.4788 336.055L30.6445 335.294C35.4816 335.032 40.1281 334.818 44.9771 334.568L51.6846 334.223C56.5574 333.974 61.8591 333.807 66.9106 334.009L81.815 334.616L100.734 333.985L124.944 334.033C130.412 334.033 135.583 334.509 141.182 334.497H146.448L162.794 333.795L171.074 333.997L177.913 334.568L192.257 335.294L192.234 335.329Z" fill="#030302"/>
<path d="M163.188 171.434C163.343 168.972 162.092 166.059 162.08 163.394C162.08 160.897 160.806 159.255 160.579 156.996L158.232 132.566C157.791 127.975 158.125 123.539 156.755 118.972C160.544 118.841 163.534 118.853 167.001 118.65L176.949 118.08C184.717 117.628 207.687 116.557 208.021 116.938C208.545 117.532 208.664 118.032 208.557 119.067L206.662 138.073L206.079 146.47C205.757 151.156 205.852 155.628 205.257 160.302L203.672 172.755L190.781 173.088L163.188 171.446V171.434Z" fill="#FFF9F1"/>
<path d="M175.782 262.173L162.76 262.863C160.818 262.97 158.65 262.137 156.732 262.613C154.003 263.291 151.454 262.744 148.809 262.625L137.038 262.101L126.589 262.399C123.301 262.494 119.37 262.553 116.105 262.732C114.973 262.66 113.067 259.806 111.709 262.066C111.113 261.733 110.386 261.102 109.838 261.162C109.1 261.245 108.063 261.733 107.491 262.744L86.8563 262.125L76.2052 262.541L71.0703 262.767C66.9004 262.946 62.9808 263.041 58.7632 262.791L47.0637 262.125L36.0314 262.149C32.9099 262.149 30.1101 261.78 26.9887 261.899L21.1151 262.125C16.0397 262.327 9.71343 261.78 4.07812 262.399L4.18531 253.253L17.112 253.324L27.6678 253.669L65.3159 254.014C75.0854 254.109 84.3068 254.406 93.9571 254.394H104.132C106.681 254.394 108.885 254.882 111.447 254.858C114.008 254.834 116.224 254.382 118.726 254.394L128.388 254.466L153.884 254.061L167.895 253.752C179.833 253.49 191.473 253.99 203.434 253.36C209.177 253.062 219.304 253.395 219.018 253.217C219.518 253.526 219.185 255.001 219.185 255.643L219.244 263.1C217.755 261.34 215.873 262.244 214.169 262.208L201.85 262.006L195.988 261.911C193.165 261.863 190.841 261.935 188.065 261.971L175.806 262.137L175.782 262.173Z" fill="#E8B386"/>
<path d="M192.235 335.329L177.89 334.604L171.052 334.033L162.771 333.831L146.425 334.52H141.159C135.572 334.544 130.389 334.069 124.921 334.057L100.711 334.009L81.7921 334.639L66.8877 334.033C61.8481 333.831 56.5465 333.997 51.6617 334.247L44.9542 334.592C40.1052 334.842 35.4587 335.056 30.6216 335.317L16.456 336.079L5.6738 334.782L5.55469 328.098C8.31873 327.182 11.3091 327.943 14.5736 327.884L27.3811 327.634L42.5714 326.932L67.4716 326.219L80.7795 326.79C83.8413 326.92 86.2599 327.491 89.5481 326.73C90.4297 326.528 96.3034 326.956 100.378 326.932L108.622 326.873C110.636 326.861 112.173 326.837 114.21 326.873L122.514 327.004C125.731 327.051 130.675 326.29 133.344 326.825C136.537 327.468 139.027 326.932 142.041 326.802L155.337 326.231L171.23 326.683C175.031 326.79 178.438 327.313 182.179 326.897L189.054 327.539L209.51 327.896C212.202 327.943 214.621 326.956 217.29 328.027L217.254 335.056L207.58 336.138L192.211 335.353L192.235 335.329Z" fill="#E8B386"/>
<path d="M197.975 183.996L175.386 183.58L162.424 183.437C159.147 183.401 156.157 184.115 153.059 184.02C149.962 183.925 147.543 183.675 144.469 184.269C141.396 184.864 138.048 184.293 134.903 184.246L115.34 183.936L97.2545 184.02L88.4024 184.139C85.2214 184.186 81.5281 184.864 78.3947 184.234C75.2613 183.603 72.6522 184.174 69.8286 183.984C66.028 183.722 62.7874 183.044 58.6652 183.722C56.6994 184.043 54.0187 183.377 51.9218 183.461L39.5671 183.948C32.3234 184.234 25.2584 183.817 17.8599 184.46C14.2976 184.769 10.9259 183.877 7.16108 185.411C6.05308 182.592 6.05308 179.809 7.16108 177.014L31.3584 176.574L46.0483 177.002C48.4549 177.074 50.6471 176.931 53.1609 176.907L62.5848 176.824C65.8016 176.8 68.5776 177.002 71.5084 177.062L93.7637 177.526L112.719 178.477L141.539 177.109L154.501 177.002C159.648 176.955 164.592 176.991 169.751 176.955L176.196 176.907C178.126 176.895 180.354 176.8 182.415 176.8H206.029C209.353 176.8 212.653 176.384 215.953 177.264C217.014 179.988 216.93 182.711 216.418 185.364C213.273 184.412 210.985 184.591 208.221 184.46L197.963 183.996H197.975Z" fill="#E8B386"/>
<path d="M41.6535 248.874C38.8299 249.981 36.2684 249.564 33.4329 249.457C31.3718 249.374 29.3226 249.969 27.5474 248.934C28.0716 245.675 27.0351 242.773 27.2972 239.978C28.0001 232.544 27.3687 225.42 27.464 218.094L29.0723 202.37C31.3002 201.181 33.2422 201.609 35.3867 201.621C37.5312 201.633 39.4851 200.991 42.0228 201.443C41.6296 208.959 41.8918 216.357 41.9275 223.767L41.9752 235.351L41.6535 248.898V248.874Z" fill="#D4977E"/>
<path d="M84.3293 248.208L80.4931 240.75C76.2875 232.579 71.9626 223.136 67.5545 215.916L64.9453 209.577L77.169 202.346L82.3993 213.419L88.94 224.967C91.7994 230.022 94.2299 235.113 97.5181 239.811C97.5658 241.428 95.1592 242.285 94.0273 242.903L84.3293 248.22V248.208Z" fill="#EE8F72"/>
<path d="M58.6407 234.673L59.01 244.403L59.4509 250.1C56.0911 249.445 53.0054 249.814 49.9316 249.648C48.2398 249.552 47.0246 249.231 44.9277 250.135C45.8094 246.698 45.8451 244.105 45.8213 240.882L45.6188 214.585L46.0954 202.382C48.5377 201.431 50.7537 202.156 53.065 202.204C55.1857 202.251 57.1038 201.573 59.4152 202.121C59.2603 205.284 59.0935 208.519 58.9743 211.778L58.6169 221.674C58.462 226.051 58.4858 230.309 58.6407 234.685V234.673Z" fill="#EFDEA1"/>
<path d="M114.448 246.318C114.626 247.865 114.555 249.684 113.518 250.481C112.482 251.278 110.313 251.076 109.372 250.469C107.752 249.411 108.634 247.52 108.634 245.985L108.598 227.431C108.598 223.625 108.431 220.319 108.407 216.656L108.288 196.829L108.229 187.742L114.769 187.766L114.793 204.631L114.531 226.599L114.281 230.94C113.995 236.03 113.816 240.895 114.448 246.318Z" fill="#E8B386"/>
<path d="M204.552 238.384C204.635 240.882 206.458 243.142 204.111 249.053L199.738 250.04C200.239 245.639 198.857 241.845 198.833 237.813L198.738 221.174L198.964 210.541L198.88 202.239L198.428 187.943L203.05 187.693C204.814 191.571 204.158 195.626 204.158 199.718V213.324V227.049L204.54 238.384H204.552Z" fill="#E8B386"/>
<path d="M114.172 323.211C112.588 322.962 110.741 323.092 109.621 323.057C108.037 321.665 108.644 318.834 108.728 316.908L109.025 309.914L108.704 288.874C108.585 281.251 107.524 274.007 109.168 266.479C111.027 266.039 112.469 266.098 114.828 266.3C113.005 267.751 114.851 269.369 114.816 270.689L114.077 299.805L114.399 315.278L114.184 323.223L114.172 323.211Z" fill="#E8B386"/>
<path d="M18.9673 248.434C17.0253 245.497 17.8473 243.011 18.1809 240.097C18.6932 235.625 18.9911 231.177 18.9434 226.729L18.86 220.544C18.8004 216.096 19.5868 211.731 18.312 207.282C20.5399 201.062 16.9777 194.735 20.1825 187.539L24.3881 187.967L24.5788 194.307L24.2451 206.521C24.0188 214.99 23.983 222.982 23.852 231.296L23.5541 249.291C22.5653 250.456 19.6583 249.481 18.9673 248.434Z" fill="#E8B386"/>
<path d="M202.943 324.589L198.07 324.196C198.416 322.698 197.475 321.271 197.522 320.034C197.57 318.618 198.416 317.429 198.213 315.954C197.939 313.885 198.606 311.946 198.702 309.865L199.381 293.844C199.643 287.683 198.666 281.808 199.464 275.54C199.834 272.626 199.131 269.236 200.179 266.441C200.715 265.168 203.36 265.704 204.73 265.822L205.409 270.176C204.551 275.29 204.277 280.19 204.456 285.352C204.516 286.934 204.087 288.504 204.063 290.288L203.92 302.586C203.872 306.653 204.945 310.602 203.491 314.693C202.764 316.715 203.253 318.571 203.265 320.676C203.265 321.556 201.716 322.769 202.943 324.589Z" fill="#E8B386"/>
<path d="M24.8772 324.137C23.9122 324.482 22.1847 324.566 20.3142 324.577C21.2673 323.198 20.2308 322.199 20.1593 321.188C20.0282 319.285 20.3023 317.489 19.7304 315.586C18.4913 311.411 19.0036 307.463 18.9798 303.205L18.9083 287.553L18.396 277.11C18.2173 273.554 16.74 269.462 18.3483 266.263C19.2061 265.133 21.7081 265.395 22.6731 266.013C23.9717 266.834 23.3879 268.142 23.4118 269.581L23.5786 276.896C23.6143 278.561 23.7096 280.619 24.0075 282.129C24.4364 284.317 23.7811 285.65 23.8288 287.672L24.2219 309.508C24.2577 311.376 26.1878 317.988 24.8653 324.137H24.8772Z" fill="#E8B386"/>
<path d="M156.313 60.1351L140.015 61.8477C136.011 62.264 132.556 60.0994 129.828 58.244C132.711 55.889 134.975 55.1873 137.953 54.5093C140.36 53.9622 142.612 52.987 145.078 52.6302L154.99 51.1791C160.352 50.3942 165.927 52.1663 171.003 54.4499C169.835 55.3895 168.584 56.5551 167.786 56.7097C165.189 57.2092 160.101 59.7426 156.313 60.1351Z" fill="#A3CF96"/>
<path d="M168.977 39.3561C169.965 41.1282 168.464 45.065 169.084 49.5014C168.512 48.8948 167.892 48.978 167.702 48.8948C167.428 48.7639 167.571 47.9552 167.916 47.3486C164.628 45.6002 163.317 42.5793 161.626 39.5226L158.171 33.3022C155.633 28.747 154.549 23.7635 155.097 18.3281L159.16 23.1807C160.422 24.6793 161.566 26.0471 162.484 27.6884L168.977 39.3561Z" fill="#A3CF96"/>
<path d="M178.177 55.2458C176.974 54.6392 177.129 53.3904 176.509 51.9156C175.187 52.3556 172.566 51.1187 172.959 50.1791C174.436 46.6229 173.268 41.7346 173.304 40.3312L173.638 30.1978L175.425 12.6309C177.736 15.4734 177.105 18.5896 176.998 21.5987C176.866 25.4522 177.415 28.8657 177.593 32.6122L177.998 41.021C178.201 45.2194 179.237 49.6677 178.177 55.2339V55.2458Z" fill="#A3CF96"/>
<path d="M181.404 105.723L180.999 114.31C179.903 114.464 179.354 114.453 178.342 114.31L178.771 103.843L179.283 71.8495C182.631 67.1872 179.688 65.3318 179.664 65.3794C179.676 65.3199 181.69 64.5111 182.512 64.4636C182.845 64.4398 183.429 65.0583 183.465 65.4151C183.501 65.7719 182.678 66.3547 182.583 66.8185C182.023 69.673 182.845 72.5512 182.75 75.4652L182.524 82.4943L182.142 89.7614C181.856 95.0303 181.678 100.192 181.416 105.723H181.404Z" fill="#A3CF96"/>
<path d="M155.574 70.1731C152.202 72.8016 143.719 74.0623 140.705 72.5518C145.125 68.9124 149.021 65.6773 154.633 64.2857L163.556 62.0616C166.451 61.3361 169.513 60.0159 172.575 62.0259C167.893 63.7386 164.342 65.6773 160.637 68.1036C159.231 69.0194 157.015 69.0551 155.574 70.1731Z" fill="#A3CF96"/>
<path d="M182.38 45.1375C181.462 43.1275 181.427 41.4505 181.951 40.0351L184.941 32.0545C187.312 25.7271 189.171 19.5067 192.042 13.4291L195.282 6.56641C196.271 12.9414 193.174 19.4829 191.41 25.513C189.337 32.5778 186.013 38.7625 182.392 45.1375H182.38Z" fill="#A3CF96"/>
<path d="M176.317 68.6024C170.586 73.9664 164.534 78.593 157.052 79.4732C156.313 78.3552 157.874 77.8199 158.184 77.3323C161.46 72.218 166.214 67.6271 172.54 66.4615C174.089 66.1761 175.661 67.7698 176.317 68.5905V68.6024Z" fill="#A3CF96"/>
<path d="M207.08 79.6411C205.007 80.89 203.661 79.3676 202.195 79.0227C196.572 77.6787 193.009 74.3485 190.126 69.365C189.459 68.2233 186.719 67.4264 188.744 65.2617L200.98 73.2186C203.256 74.6934 204.268 77.869 207.08 79.6411Z" fill="#A3CF96"/>
<path d="M209.224 44.4816C204.447 46.6581 198.68 51.0944 193.402 51.3442C199.598 46.5629 205.578 41.2822 213.168 38.2612C214.871 37.5832 217.016 37.7022 218.529 36.3939C221.627 33.7178 219.78 39.6884 209.236 44.4816H209.224Z" fill="#A3CF96"/>
<path d="M192.141 43.1505C189.448 46.7305 186.077 51.5712 181.883 54.3067C181.752 51.0835 183.503 49.1092 185.421 46.8613C190.401 41.0096 194.273 32.8625 202.053 29.9961L192.153 43.1505H192.141Z" fill="#A3CF96"/>
<path d="M197.475 63.7019C194.008 64.2847 190.839 62.1676 188.063 60.7641C187.002 60.9188 186.145 61.3707 184.822 61.0496C191.387 56.4229 199.75 56.8392 205.743 62.3103L197.463 63.7019H197.475Z" fill="#A3CF96"/>
</svg>
