<svg width="104" height="107" viewBox="0 0 104 107" fill="none" xmlns="http://www.w3.org/2000/svg">
<path fill-rule="evenodd" clip-rule="evenodd" d="M61.8491 1.11789C60.2359 2.44258 60.1819 3.27641 61.5569 5.61465C62.1329 6.59351 62.764 8.27377 62.9602 9.34789C63.2952 11.1879 63.2557 11.2812 62.278 10.9613C60.4088 10.3497 51.5052 10.2559 49.6472 10.8279C48.1504 11.2885 47.8505 11.6036 47.8505 12.7124C47.8505 14.4019 46.9853 14.7243 43.984 14.1533C42.2297 13.8197 40.9583 13.8783 39.241 14.3717C35.986 15.3071 32.3128 16.5682 30.4918 17.3757C29.648 17.7493 28.7307 18.0556 28.4531 18.0556C28.1756 18.0556 27.3323 18.6271 26.579 19.3251C20.4119 25.041 18.863 26.3594 18.3128 26.3594C17.9661 26.3594 17.2455 27.2181 16.7114 28.2683C16.1777 29.3179 15.5666 30.2524 15.3539 30.3442C15.1411 30.436 14.2359 31.665 13.3425 33.0756C11.7561 35.5795 11.6636 35.64 9.40875 35.64C8.1389 35.64 6.35438 36.001 5.44289 36.4426C3.52204 37.3731 1.59438 39.0128 1.59438 39.7167C1.59438 39.9844 1.27107 40.5622 0.875703 41.0003C-1.01398 43.0948 0.273417 47.9184 3.59607 51.1939L5.904 53.4687L5.44972 57.5058C5.00859 61.4256 5.06407 62.9999 5.75888 66.2775C5.9702 67.272 5.82364 68.5307 5.36205 69.6966C4.96036 70.7112 4.47931 72.6655 4.2938 74.039C3.99094 76.2766 4.10828 76.7851 5.42 78.9236C6.71566 81.0361 10.6202 84.0709 12.3394 84.3024C12.5892 84.3362 13.1219 84.3909 13.5236 84.4246C13.9253 84.4583 14.254 84.7802 14.254 85.1397C14.254 86.394 22.488 94.2547 23.8012 94.2547C24.1167 94.2547 24.5009 94.5844 24.6552 94.9874C24.8091 95.3904 25.3803 95.7201 25.9246 95.7201C26.4685 95.7201 26.9135 95.9399 26.9135 96.2086C26.9135 96.4772 27.1701 96.697 27.4837 96.697C27.7973 96.697 28.4001 96.9984 28.8227 97.3672C29.4187 97.8864 33.7253 99.5862 35.1909 99.8808C35.3248 99.9076 36.4204 100.109 37.6255 100.328C38.8306 100.548 40.2489 101.029 40.7772 101.398C41.305 101.768 42.6197 102.071 43.6987 102.071C45.3317 102.072 45.8221 102.316 46.6318 103.529C48.8423 106.838 55.4852 108.063 59.8167 105.96C61.925 104.936 64.4053 102.34 64.4053 101.157C64.4053 100.43 66.5988 99.5657 67.5318 99.9247C67.9174 100.073 68.9598 99.8735 69.8489 99.4812C70.738 99.0885 72.6706 98.2899 74.1435 97.7062C77.9306 96.2051 79.104 95.5965 80.0934 94.6211C80.5701 94.1512 81.28 93.7663 81.6715 93.7663C82.063 93.7663 82.8084 93.3081 83.328 92.7488C84.2726 91.7319 87.8956 91.2248 89.0598 91.9463C89.797 92.4035 93.1533 91.3787 94.5633 90.266C96.8119 88.4919 97.9814 85.8572 98.0564 82.3994C98.0944 80.6503 97.9717 78.9705 97.7842 78.6662C97.5968 78.3614 97.9181 76.6811 98.4985 74.9319C99.0789 73.1822 99.4241 71.4136 99.2664 71.0003C99.1086 70.5876 99.2201 69.2902 99.5147 68.117C100.176 65.4818 99.2829 53.3265 98.2614 51.0572C97.8909 50.2346 97.4337 48.799 97.2457 47.8676C97.0578 46.9361 96.7218 45.837 96.4993 45.4253C96.2763 45.0135 95.7636 43.9867 95.3594 43.1442L94.6252 41.6114L96.4355 42.0588C100.28 43.0084 101.145 43.0152 102.292 42.1033C103.823 40.8851 104.501 37.7673 103.587 36.1397C103.206 35.4617 102.755 34.5224 102.583 34.0525C102.411 33.5826 102.077 33.1977 101.84 33.1977C101.604 33.1977 101.41 32.8255 101.41 32.3713C101.41 31.9165 100.19 30.3779 98.6991 28.9521C96.695 27.0354 96.2188 26.3447 96.8732 26.3032C99.0901 26.162 102.384 24.6219 102.384 23.7261C102.384 23.3598 102.713 22.7863 103.114 22.4517C103.516 22.1171 103.845 21.339 103.845 20.7221C103.845 19.1532 102.299 16.5971 101.348 16.5932C100.912 16.5917 100.283 16.2605 99.9495 15.8576C99.616 15.4546 98.9757 15.1249 98.5268 15.1249C98.0773 15.1249 97.5013 14.9388 97.2472 14.7116C96.6239 14.1548 89.7975 12.9351 89.4206 13.3132C89.256 13.4783 88.8276 13.3181 88.4687 12.9581C88.0232 12.5112 86.7909 12.3451 84.5949 12.4354C81.5269 12.5619 81.3477 12.5072 80.8151 11.2822C79.9834 9.37037 77.4827 6.33266 76.7401 6.33266C76.3832 6.33266 76.0911 6.03909 76.0911 5.68056C76.0911 4.87852 73.4155 2.42501 72.541 2.42501C72.1905 2.42501 71.6836 2.20422 71.4148 1.93459C70.8266 1.34453 65.7638 -0.0241002 64.2597 0.00032261C63.6706 0.0100917 62.5858 0.512695 61.8491 1.11789ZM68.5192 8.15459C68.711 9.16716 68.918 10.3258 68.9793 10.7288C69.0407 11.1317 69.3513 11.9416 69.6693 12.5282C70.35 13.7831 70.3909 14.631 69.8144 15.5435C69.4657 16.0959 68.9204 16.0681 66.5453 15.375C61.7575 13.979 55.7174 13.2516 54.7577 13.9555C54.3069 14.2862 54.0474 14.6408 54.1813 14.7444C54.9842 15.3657 57.6924 16.9458 60.4702 18.4146C64.4944 20.5414 66.8399 22.3003 66.8399 23.1903C66.8399 23.5913 65.9751 24.1027 64.7705 24.4143C59.1282 25.8724 58.3774 26.246 59.0143 27.2796C59.3269 27.7871 61.4488 28.0045 67.8473 28.1842C73.2173 28.3357 76.4606 28.6229 76.7986 28.978C77.4476 29.6589 80.4732 35.8246 80.4732 36.466C80.4732 37.8171 82.1151 42.1717 82.9345 42.9937C84.3563 44.42 84.6879 44.1714 84.7624 41.6236C84.7994 40.3478 84.9279 38.8638 85.0487 38.3265C85.169 37.7892 85.2843 36.8636 85.3048 36.2696C85.334 35.4334 85.7849 35.0695 87.3011 34.6602C88.3787 34.3691 89.5102 34.286 89.816 34.4756C90.1213 34.6651 90.9948 34.8692 91.7563 34.9293C92.5178 34.9894 93.4128 35.2585 93.7453 35.5272C94.7006 36.2989 97.515 36.7771 97.515 36.168C97.515 35.3821 91.6312 29.2901 90.8726 29.2901C90.2639 29.2901 87.2899 25.6477 87.2899 24.9028C87.2899 24.7196 88.0018 24.3308 88.8724 24.0397C91.0946 23.2953 96.0168 21.1871 96.3785 20.8242C96.9312 20.2698 95.5527 19.1385 93.9674 18.8454C89.4007 18.0004 82.1618 17.7132 79.6105 18.2754C78.1079 18.6066 78.0217 18.5343 76.8877 16.0163C74.8305 11.4468 71.6067 7.57628 69.0874 6.65017C68.2573 6.34537 68.2032 6.48798 68.5192 8.15459ZM43.6193 19.6709C43.482 19.8937 43.034 19.9469 42.6236 19.7886C41.0236 19.1727 33.476 21.1334 32.2695 22.4791C32.1356 22.6281 31.0401 23.2098 29.835 23.7715C27.21 24.9946 18.6916 33.1845 17.4218 35.7055C16.5405 37.4556 16.5429 37.5123 17.6248 39.8207C18.9136 42.5712 18.7345 45.0301 16.9509 49.076C15.7911 51.7068 13.4004 53.7129 11.4255 53.7129C10.8704 53.7129 10.3144 53.8785 10.1898 54.0807C9.93364 54.4959 9.72864 59.5314 9.81482 63.2857L9.87179 65.7758L13.0089 65.6161C16.1081 65.4583 16.1777 65.4832 18.7301 67.6539C22.2743 70.6672 23.5232 73.3947 22.9097 76.7797C22.6122 78.4244 21.9481 79.8941 21.0298 80.9438C20.2488 81.8358 19.6099 82.7706 19.6099 83.0207C19.6099 83.2713 20.3398 84.1979 21.2318 85.0801C26.4388 90.2279 31.9973 93.4258 38.8427 95.2116C40.9851 95.7704 43.2356 96.4826 43.8433 96.7942C45.1477 97.4629 45.4651 97.1728 46.3523 94.499C47.2969 91.6527 50.7169 88.5794 53.0658 88.4656C54.0805 88.4167 55.752 88.2902 56.7809 88.1852C58.078 88.0523 58.9008 88.2443 59.4656 88.8109C59.9131 89.2598 60.9887 90.1341 61.8559 90.7535C62.7226 91.3723 63.4315 92.0723 63.4315 92.3092C63.4315 92.5456 63.9763 93.3291 64.6429 94.0501C65.5135 94.9928 66.0267 95.2234 66.4688 94.8702C66.8067 94.5996 68.4914 94.0256 70.2127 93.5948C71.9339 93.1635 73.4676 92.616 73.621 92.3776C73.7744 92.1392 74.4478 91.7793 75.1173 91.578C75.7868 91.3768 76.7727 90.8121 77.3083 90.3237C77.8439 89.8352 78.9083 89.1973 79.6742 88.9061C80.6894 88.5203 80.9343 88.214 80.5789 87.7744C79.6533 86.6294 78.9059 81.6902 79.4921 80.5911C79.7886 80.0358 79.9075 79.3793 79.7555 79.1331C79.2569 78.3242 84.7376 73.2511 86.1102 73.2511C86.5265 73.2511 87.2714 73.0343 87.7652 72.769C88.3938 72.4315 89.2794 72.5048 90.7158 73.0133C93.4074 73.9657 93.6192 73.9389 93.6226 72.6406C93.6246 72.0363 93.9572 70.9036 94.3623 70.124C94.7898 69.302 94.9592 68.2767 94.7664 67.6818C94.5833 67.1181 94.4041 63.8552 94.3686 60.4301C94.3257 56.3115 94.1057 54.005 93.7181 53.6162C93.3962 53.2933 93.1328 52.7326 93.1328 52.3706C93.1328 52.0082 92.6946 50.8022 92.159 49.69C91.6234 48.5777 91.1852 47.381 91.1852 47.0308C91.1852 46.3343 89.2731 43.9438 88.7156 43.9438C88.5252 43.9438 88.2204 44.5387 88.0383 45.266C87.5699 47.1383 85.7099 48.8298 83.774 49.1449C82.3347 49.3793 81.9271 49.1937 80.632 47.7142C79.8135 46.7788 78.5393 44.3941 77.8001 42.4144C74.6683 34.0286 74.1873 32.9594 73.6088 33.103C73.1502 33.2168 65.5885 33.6286 60.7535 33.8029C58.9301 33.8684 56.0169 32.4983 54.9238 31.0603C53.0448 28.5892 53.4864 25.5827 56.0724 23.2352L57.09 22.311L55.7569 21.1607C55.0236 20.5282 53.9855 19.9914 53.4499 19.9674C52.9143 19.944 50.5397 19.7759 48.1728 19.5952C45.8055 19.414 43.7566 19.4477 43.6193 19.6709ZM8.65453 39.5477C8.48898 39.8163 7.85991 40.0361 7.25663 40.0361C5.74527 40.0361 4.02892 42.4955 4.02892 44.6613C4.02892 47.6175 8.03811 51.0279 10.8505 50.4637C12.41 50.1506 13.3142 49.0296 14.2043 46.3059C15.0442 43.7347 13.9891 41.3955 11.3885 40.065C9.12585 38.9068 9.0572 38.8936 8.65453 39.5477ZM37.8679 40.4098C36.5655 41.3686 36.1209 43.1837 36.7563 44.9524C37.7993 47.8548 39.2201 49.2333 41.7564 49.8033C44.4548 50.4099 45.4252 50.196 46.2924 48.8034C47.645 46.6303 45.413 44.4733 43.072 45.6919C40.9671 46.7871 40.3205 46.0627 40.5318 42.8467C40.6589 40.9129 39.11 39.4959 37.8679 40.4098ZM66.1928 55.5744C65.4994 56.3432 65.4259 56.8737 65.7886 58.4944C66.0326 59.5836 66.7318 61.178 67.3419 62.0377C68.4501 63.5993 68.4549 63.6007 72.0429 63.3697C75.7682 63.1298 77.0133 62.4025 77.0493 60.4462C77.0732 59.1645 75.2404 58.3659 73.9117 59.0796C73.3157 59.3995 72.3054 59.5871 71.6666 59.4957C70.7444 59.3643 70.4439 58.9516 70.2088 57.4931C69.8606 55.3321 69.8723 55.3473 68.2782 54.9463C67.3939 54.7235 66.799 54.9028 66.1928 55.5744ZM49.989 59.8303C48.8935 61.5077 49.7008 63.482 51.4828 63.482C53.6033 63.482 53.8336 60.2069 51.7901 59.1093C50.9633 58.6658 50.6746 58.7811 49.989 59.8303ZM11.3793 69.9614C9.74131 70.8059 8.37018 72.811 8.27279 74.504C8.17298 76.2473 9.3922 79.1126 10.2341 79.1126C10.5705 79.1126 10.8456 79.3104 10.8456 79.5522C10.8456 80.0436 13.7987 80.1887 15.8004 79.7955C17.638 79.4345 18.8041 77.4211 18.7043 74.7824C18.6089 72.243 18.1482 71.566 15.645 70.2847C13.5002 69.1872 12.9607 69.1462 11.3793 69.9614ZM85.2235 77.5276C82.7685 79.0545 81.5488 83.5409 83.1512 85.1485C83.5529 85.5514 83.8816 86.0926 83.8816 86.3515C83.8816 87.0862 87.5504 88.3757 89.0793 88.1788C92.4628 87.7426 94.0935 85.8562 94.1037 82.3657C94.1086 80.7475 91.5474 77.7645 89.668 77.1998C87.3454 76.5013 86.8093 76.5409 85.2235 77.5276ZM51.9074 93.5817C50.8742 94.5967 49.8064 97.5054 49.801 99.319C49.7971 100.636 52.7035 103.03 54.3176 103.039C56.2793 103.05 58.7343 101.894 59.6049 100.549C60.0602 99.8456 60.3114 98.538 60.2384 97.2514C60.0675 94.2396 57.8857 92.2276 54.9925 92.4142C53.7153 92.4968 52.572 92.9291 51.9074 93.5817Z" fill="#1B1B1B"/>
<path fill-rule="evenodd" clip-rule="evenodd" d="M43.6197 19.6708C43.4824 19.8935 43.0344 19.9468 42.6239 19.7885C41.024 19.1726 33.4764 21.1333 32.2699 22.479C32.136 22.6279 31.0404 23.2097 29.8353 23.7714C27.2104 24.9945 18.692 33.1844 17.4221 35.7053C16.5408 37.4555 16.5433 37.5122 17.6252 39.8206C18.914 42.5711 18.7348 45.03 16.9513 49.0759C15.7915 51.7067 13.4008 53.7128 11.4259 53.7128C10.8708 53.7128 10.3148 53.8784 10.1901 54.0806C9.93402 54.4958 9.72902 59.5313 9.81521 63.2855L9.87218 65.7757L13.0093 65.616C16.1085 65.4582 16.1781 65.4831 18.7305 67.6538C22.2747 70.6671 23.5236 73.3946 22.9101 76.7796C22.6126 78.4243 21.9484 79.894 21.0301 80.9437C20.2491 81.8356 19.6103 82.7705 19.6103 83.0206C19.6103 83.2712 20.3402 84.1978 21.2322 85.0799C26.4392 90.2278 31.9977 93.4257 38.8431 95.2115C40.9855 95.7703 43.236 96.4825 43.8437 96.7941C45.1481 97.4628 45.4655 97.1727 46.3527 94.4988C47.2973 91.6526 50.7173 88.5793 53.0661 88.4654C54.0809 88.4166 55.7524 88.2901 56.7812 88.1851C58.0784 88.0522 58.9012 88.2442 59.466 88.8108C59.9135 89.2597 60.9891 90.134 61.8563 90.7534C62.7229 91.3722 63.4319 92.0722 63.4319 92.3091C63.4319 92.5455 63.9767 93.329 64.6433 94.05C65.5139 94.9927 66.0271 95.2232 66.4692 94.8701C66.8071 94.5995 68.4918 94.0255 70.213 93.5947C71.9343 93.1634 73.468 92.6158 73.6214 92.3775C73.7748 92.1391 74.4482 91.7791 75.1177 91.5779C75.7871 91.3766 76.7731 90.812 77.3087 90.3235C77.8443 89.8351 78.9087 89.1971 79.6746 88.906C80.6898 88.5201 80.9347 88.2139 80.5793 87.7743C79.6537 86.6293 78.9063 81.6901 79.4925 80.591C79.789 80.0357 79.9078 79.3792 79.7559 79.133C79.2573 78.3241 84.738 73.251 86.1106 73.251C86.5269 73.251 87.2718 73.0341 87.7655 72.7689C88.3941 72.4314 89.2798 72.5047 90.7162 73.0131C93.4078 73.9656 93.6196 73.9388 93.623 72.6404C93.625 72.0362 93.9575 70.9035 94.3626 70.1239C94.7901 69.3019 94.9596 68.2766 94.7668 67.6817C94.5837 67.118 94.4045 63.8551 94.369 60.43C94.3261 56.3114 94.106 54.0049 93.7185 53.6161C93.3966 53.2932 93.1332 52.7325 93.1332 52.3705C93.1332 52.0081 92.695 50.8021 92.1594 49.6898C91.6238 48.5776 91.1856 47.3809 91.1856 47.0307C91.1856 46.3342 89.2735 43.9437 88.716 43.9437C88.5256 43.9437 88.2208 44.5386 88.0387 45.2659C87.5703 47.1381 85.7103 48.8297 83.7744 49.1447C82.3351 49.3792 81.9275 49.1936 80.6323 47.714C79.8139 46.7787 78.5396 44.394 77.8005 42.4143C74.6687 34.0285 74.1876 32.9593 73.6092 33.1029C73.1505 33.2167 65.5889 33.6284 60.7539 33.8028C58.9304 33.8683 56.0173 32.4982 54.9242 31.0601C53.0452 28.5891 53.4868 25.5826 56.0728 23.2351L57.0904 22.3109L55.7573 21.1606C55.024 20.528 53.9859 19.9912 53.4503 19.9673C52.9147 19.9439 50.5401 19.7758 48.1732 19.5951C45.8059 19.4139 43.757 19.4476 43.6197 19.6708ZM8.65491 39.5476C8.48936 39.8162 7.86029 40.036 7.25701 40.036C5.74566 40.036 4.0293 42.4954 4.0293 44.6612C4.0293 47.6173 8.03849 51.0277 10.8509 50.4636C12.4104 50.1505 13.3146 49.0295 14.2047 46.3058C15.0446 43.7346 13.9895 41.3954 11.3889 40.0648C9.12623 38.9067 9.05758 38.8935 8.65491 39.5476ZM37.8683 40.4097C36.5658 41.3685 36.1213 43.1836 36.7567 44.9523C37.7997 47.8547 39.2205 49.2331 41.7568 49.8032C44.4552 50.4098 45.4256 50.1959 46.2928 48.8033C47.6454 46.6302 45.4134 44.4731 43.0724 45.6918C40.9675 46.7869 40.3209 46.0626 40.5322 42.8466C40.6593 40.9128 39.1104 39.4958 37.8683 40.4097ZM66.1932 55.5743C65.4998 56.3431 65.4263 56.8736 65.789 58.4943C66.0329 59.5835 66.7321 61.1779 67.3422 62.0375C68.4504 63.5991 68.4553 63.6006 72.0433 63.3696C75.7686 63.1297 77.0137 62.4024 77.0497 60.4461C77.0736 59.1644 75.2408 58.3658 73.9121 59.0794C73.3161 59.3994 72.3058 59.5869 71.667 59.4956C70.7448 59.3642 70.4443 58.9515 70.2091 57.4929C69.861 55.332 69.8727 55.3472 68.2786 54.9461C67.3943 54.7234 66.7993 54.9026 66.1932 55.5743ZM49.9894 59.8302C48.8939 61.5075 49.7011 63.4819 51.4832 63.4819C53.6037 63.4819 53.834 60.2068 51.7904 59.1092C50.9637 58.6657 50.675 58.781 49.9894 59.8302ZM11.3796 69.9613C9.74169 70.8058 8.37056 72.8109 8.27318 74.5039C8.17336 76.2472 9.39258 79.1125 10.2344 79.1125C10.5709 79.1125 10.846 79.3103 10.846 79.5521C10.846 80.0435 13.7991 80.1886 15.8008 79.7954C17.6383 79.4344 18.8045 77.421 18.7047 74.7823C18.6092 72.2428 18.1486 71.5658 15.6454 70.2846C13.5006 69.1871 12.9611 69.146 11.3796 69.9613ZM85.2239 77.5274C82.7689 79.0544 81.5492 83.5408 83.1516 85.1483C83.5533 85.5513 83.882 86.0925 83.882 86.3514C83.882 87.086 87.5508 88.3756 89.0797 88.1787C92.4632 87.7425 94.0939 85.8561 94.1041 82.3656C94.109 80.7473 91.5478 77.7643 89.6684 77.1997C87.3458 76.5012 86.8097 76.5408 85.2239 77.5274ZM51.9078 93.5815C50.8746 94.5965 49.8068 97.5053 49.8014 99.3189C49.7975 100.636 52.7039 103.03 54.318 103.039C56.2797 103.05 58.7347 101.894 59.6053 100.549C60.0605 99.8455 60.3118 98.5379 60.2388 97.2513C60.0679 94.2395 57.886 92.2275 54.9928 92.4141C53.7157 92.4967 52.5724 92.929 51.9078 93.5815Z" fill="#F36673"/>
<path fill-rule="evenodd" clip-rule="evenodd" d="M68.5196 8.15595C68.7115 9.16852 68.9184 10.3271 68.9798 10.7301C69.0411 11.1331 69.3518 11.943 69.6697 12.5296C70.3504 13.7844 70.3913 14.6324 69.8148 15.5448C69.4662 16.0973 68.9209 16.0694 66.5458 15.3763C61.758 13.9803 55.7179 13.253 54.7582 13.9569C54.3073 14.2876 54.0478 14.6422 54.1817 14.7457C54.9846 15.367 57.6928 16.9472 60.4706 18.416C64.4949 20.5427 66.8403 22.3017 66.8403 23.1916C66.8403 23.5926 65.9756 24.104 64.771 24.4157C59.1287 25.8737 58.3779 26.2474 59.0147 27.281C59.3273 27.7885 61.4493 28.0058 67.8477 28.1856C73.2178 28.337 76.4611 28.6242 76.799 28.9793C77.4481 29.6602 80.4737 35.826 80.4737 36.4673C80.4737 37.8184 82.1155 42.173 82.935 42.9951C84.3568 44.4214 84.6884 44.1727 84.7629 41.625C84.7999 40.3491 84.9284 38.8652 85.0492 38.3279C85.1694 37.7906 85.2848 36.865 85.3053 36.271C85.3345 35.4348 85.7854 35.0709 87.3016 34.6615C88.3791 34.3704 89.5107 34.2874 89.8165 34.4769C90.1218 34.6664 90.9953 34.8706 91.7568 34.9307C92.5183 34.9907 93.4132 35.2599 93.7458 35.5285C94.7011 36.3003 97.5154 36.7785 97.5154 36.1694C97.5154 35.3835 91.6316 29.2914 90.873 29.2914C90.2644 29.2914 87.2904 25.649 87.2904 24.9041C87.2904 24.721 88.0023 24.3321 88.8728 24.041C91.0951 23.2966 96.0172 21.1885 96.379 20.8255C96.9316 20.2711 95.5532 19.1399 93.9678 18.8468C89.4011 18.0018 82.1623 17.7146 79.6109 18.2768C78.1083 18.6079 78.0221 18.5357 76.8881 16.0177C74.8309 11.4482 71.6071 7.57764 69.0879 6.65152C68.2577 6.34673 68.2036 6.48933 68.5196 8.15595Z" fill="#2AE578"/>
</svg>
